<?xml version="1.0" encoding="UTF-8"?>
<svg width="1200px" height="620px" viewBox="0 0 1200 620" version="1.1" xmlns="http://www.w3.org/2000/svg" xmlns:xlink="http://www.w3.org/1999/xlink">
    <title>ots-social-cover</title>
    <defs>
        <linearGradient x1="100%" y1="38.8031255%" x2="0%" y2="61.1968745%" id="linearGradient-1">
            <stop stop-color="#32C5FF" offset="0%"></stop>
            <stop stop-color="#B620E0" offset="51.2583893%"></stop>
            <stop stop-color="#F7B500" offset="100%"></stop>
        </linearGradient>
    </defs>
    <g id="ots-social-cover" stroke="none" stroke-width="1" fill="none" fill-rule="evenodd">
        <rect fill="#FFFFFF" x="0" y="0" width="1200" height="620"></rect>
        <path d="M510.6,379.6 C521.933333,379.6 531.966667,377.433333 540.7,373.1 C549.433333,368.766667 556.233333,362.7 561.1,354.9 C565.966667,347.1 568.4,338.066667 568.4,327.8 C568.4,317.666667 566,308.733333 561.2,301 C556.4,293.266667 549.633333,287.233333 540.9,282.9 C532.166667,278.566667 522.133333,276.4 510.8,276.4 C499.6,276.4 489.633333,278.533333 480.9,282.8 C472.166667,287.066667 465.333333,293.1 460.4,300.9 C455.466667,308.7 453,317.666667 453,327.8 C453,337.933333 455.433333,346.9 460.3,354.7 C465.166667,362.5 471.966667,368.6 480.7,373 C489.433333,377.4 499.4,379.6 510.6,379.6 Z M511,349.6 C505.533333,349.6 501.033333,347.566667 497.5,343.5 C493.966667,339.433333 492.2,334.2 492.2,327.8 C492.2,321.4 493.966667,316.166667 497.5,312.1 C501.033333,308.033333 505.533333,306 511,306 C516.466667,306 520.966667,308.033333 524.5,312.1 C528.033333,316.166667 529.8,321.4 529.8,327.8 C529.8,334.2 528.033333,339.433333 524.5,343.5 C520.966667,347.566667 516.466667,349.6 511,349.6 Z M627.2,379.6 C632.133333,379.6 637.233333,378.966667 642.5,377.7 C647.766667,376.433333 652.066667,374.8 655.4,372.8 L655.4,372.8 L653.8,344.8 C650.866667,346.4 647.6,347.2 644,347.2 C640.133333,347.2 637.133333,346.266667 635,344.4 C632.866667,342.533333 631.8,339.933333 631.8,336.6 L631.8,336.6 L631.8,302.6 L655,302.6 L655,277.8 L631.8,277.8 L631.8,240 L611.6,240 L593,277.8 L577.2,277.8 L577.2,302.6 L590,302.6 L590,341.6 C590,353.466667 593.266667,362.766667 599.8,369.5 C606.333333,376.233333 615.466667,379.6 627.2,379.6 Z M705,379.6 C718.866667,379.6 729.5,376.566667 736.9,370.5 C744.3,364.433333 748,356.133333 748,345.6 C748,336.4 745,329.133333 739,323.8 C733,318.466667 723.933333,314.733333 711.8,312.6 C705.133333,311.4 701.8,309.333333 701.8,306.4 C701.8,304.8 702.666667,303.533333 704.4,302.6 C706.133333,301.666667 709.266667,301.2 713.8,301.2 C716.866667,301.2 720.7,301.6 725.3,302.4 C729.9,303.2 734.133333,304.333333 738,305.8 L738,305.8 L742.2,282 C738.066667,280 733.5,278.566667 728.5,277.7 C723.5,276.833333 717.533333,276.4 710.6,276.4 C697,276.4 686.266667,279.2 678.4,284.8 C670.533333,290.4 666.333333,298.466667 665.8,309 C665.8,318.333333 668.233333,325.533333 673.1,330.6 C677.966667,335.666667 685.933333,339.266667 697,341.4 C702.333333,342.333333 705.966667,343.4 707.9,344.6 C709.833333,345.8 710.8,347.333333 710.8,349.2 C710.8,352.933333 707.466667,354.8 700.8,354.8 C691.733333,354.8 682.4,353.066667 672.8,349.6 L672.8,349.6 L668.2,373.4 C678.733333,377.533333 691,379.6 705,379.6 Z" id="ots" fill="url(#linearGradient-1)" fill-rule="nonzero"></path>
    </g>
</svg>