<?xml version="1.0" encoding="UTF-8"?>
<svg width="800px" height="166px" viewBox="0 0 800 166" version="1.1" xmlns="http://www.w3.org/2000/svg" xmlns:xlink="http://www.w3.org/1999/xlink">
    <title>Custom Preset 3</title>
    <defs>
        <linearGradient x1="100%" y1="47.8471875%" x2="0%" y2="52.1528125%" id="linearGradient-1">
            <stop stop-color="#32C5FF" offset="0%"></stop>
            <stop stop-color="#B620E0" offset="51.2583893%"></stop>
            <stop stop-color="#F7B500" offset="100%"></stop>
        </linearGradient>
        <filter x="0.0%" y="0.0%" width="100.0%" height="100.0%" filterUnits="objectBoundingBox" id="filter-2">
            <feGaussianBlur stdDeviation="0" in="SourceGraphic"></feGaussianBlur>
        </filter>
    </defs>
    <g id="Custom-Preset-3" stroke="none" stroke-width="1" fill="none" fill-rule="evenodd">
        <rect id="Rectangle" fill="url(#linearGradient-1)" filter="url(#filter-2)" transform="translate(400.000000, 83.000000) rotate(-360.000000) translate(-400.000000, -83.000000) " x="0" y="0" width="800" height="166" rx="24"></rect>
        <path d="M291.214112,108 C296.949716,108 301.347932,106.765504 304.408759,104.296512 C307.469586,101.827519 309,98.4496124 309,94.1627907 C309,90.4186047 307.759124,87.4612403 305.277372,85.2906977 C302.79562,83.120155 299.045418,81.6007752 294.026764,80.7325581 C291.269262,80.244186 289.890511,79.4031008 289.890511,78.2093023 C289.890511,77.5581395 290.248986,77.0426357 290.965937,76.6627907 C291.682887,76.2829457 292.978913,76.0930233 294.854015,76.0930233 C296.122466,76.0930233 297.708029,76.255814 299.610706,76.5813953 C301.513382,76.9069767 303.264396,77.3682171 304.863747,77.9651163 L304.863747,77.9651163 L306.600973,68.2790698 C304.891322,67.4651163 303.002433,66.8817829 300.934307,66.5290698 C298.86618,66.1763566 296.398216,66 293.530414,66 C287.905109,66 283.465531,67.1395349 280.211679,69.4186047 C276.957826,71.6976744 275.2206,74.9806202 275,79.2674419 C275,83.0658915 276.006488,85.996124 278.019465,88.0581395 C280.032441,90.120155 283.327656,91.5852713 287.905109,92.4534884 C290.111111,92.8333333 291.61395,93.2674419 292.413625,93.755814 C293.213301,94.244186 293.613139,94.8682171 293.613139,95.627907 C293.613139,97.1472868 292.234388,97.9069767 289.476886,97.9069767 C285.726683,97.9069767 281.86618,97.2015504 277.895377,95.7906977 L277.895377,95.7906977 L275.992701,105.476744 C280.349554,107.158915 285.423358,108 291.214112,108 Z M332.166102,108 L332.166102,88.6535433 C332.166102,86.6141732 332.559322,84.7952756 333.345763,83.1968504 C334.132203,81.5984252 335.149153,80.3720472 336.39661,79.5177165 C337.644068,78.6633858 338.918644,78.2362205 340.220339,78.2362205 C342.010169,78.2362205 343.40678,78.8700787 344.410169,80.1377953 C345.413559,81.4055118 345.915254,83.2244094 345.915254,85.5944882 L345.915254,85.5944882 L345.915254,108 L363,108 L363,87.3307087 C363,80.6614173 361.522034,75.4389764 358.566102,71.6633858 C355.610169,67.8877953 351.528814,66 346.322034,66 C339.488136,66 334.498305,69.1968504 331.352542,75.5905512 L331.352542,75.5905512 L331.352542,67.1574803 L315,67.1574803 L315,108 L332.166102,108 Z M379.96,61 C382.36,61 384.466667,60.1904762 386.28,58.5714286 C388.093333,56.952381 389,54.9146141 389,52.4581281 C389,50.1691297 388.106667,48.1871921 386.32,46.5123153 C384.533333,44.8374384 382.413333,44 379.96,44 C377.613333,44 375.533333,44.8095238 373.72,46.4285714 C371.906667,48.047619 371,50.0574713 371,52.4581281 C371,54.8587849 371.866667,56.8825944 373.6,58.5295567 C375.333333,60.1765189 377.453333,61 379.96,61 Z M386.401294,109 C388.450917,109 390.433118,108.752456 392.347896,108.257367 C394.262675,107.762279 395.813376,107.047151 397,106.111984 L397,106.111984 L396.110032,94.6424361 C394.977346,95.302554 393.871629,95.632613 392.79288,95.632613 C391.714132,95.632613 390.837648,95.2888016 390.16343,94.6011788 C389.489213,93.913556 389.152104,92.9371316 389.152104,91.6719057 L389.152104,91.6719057 L389.152104,67 L372,67 L372,92.4145383 C372,97.5304519 373.26753,101.573674 375.802589,104.544204 C378.337648,107.514735 381.87055,109 386.401294,109 Z M402,122 L419.384491,118.696165 L419.384491,100.277286 C422.130856,105.838741 426.634895,108.619469 432.896607,108.619469 C436.411955,108.619469 439.721325,107.697148 442.824717,105.852507 C445.92811,104.007866 448.399838,101.46116 450.239903,98.2123894 C452.079968,94.9636185 453,91.3294002 453,87.3097345 C453,83.2900688 452.107431,79.6558505 450.322294,76.4070796 C448.537157,73.1583088 446.092892,70.6116028 442.989499,68.7669617 C439.886107,66.9223206 436.494346,66 432.814216,66 C426.497577,66 422.021002,68.7807276 419.384491,74.3421829 L419.384491,74.3421829 L419.384491,67.1563422 L402,67.1563422 L402,122 Z M427,95 C424.845118,95 422.973064,94.2266667 421.383838,92.68 C419.794613,91.1333333 419,89.24 419,87 L419,87 L419,86.68 C419,84.6 419.781145,82.8 421.343434,81.28 C422.905724,79.76 424.791246,79 427,79 C429.154882,79 431.026936,79.7733333 432.616162,81.32 C434.205387,82.8666667 435,84.76 435,87 C435,89.1333333 434.218855,91 432.656566,92.6 C431.094276,94.2 429.208754,95 427,95 Z M476.460358,108 C478.479113,108 480.56607,107.741404 482.721228,107.224212 C484.876385,106.70702 486.635976,106.040115 488,105.223496 L488,105.223496 L487.345269,93.7908309 C486.144928,94.4441261 484.808184,94.7707736 483.335038,94.7707736 C481.752771,94.7707736 480.525149,94.3896848 479.652174,93.6275072 C478.779199,92.8653295 478.342711,91.8037249 478.342711,90.4426934 L478.342711,90.4426934 L478.342711,76.5601719 L487.836317,76.5601719 L487.836317,66.4340974 L478.342711,66.4340974 L478.342711,51 L470.076726,51 L462.465473,66.4340974 L456,66.4340974 L456,76.5601719 L461.237852,76.5601719 L461.237852,92.4842407 C461.237852,97.3295129 462.574595,101.126791 465.248082,103.876074 C467.921569,106.625358 471.658994,108 476.460358,108 Z M512.460358,108 C514.479113,108 516.56607,107.741404 518.721228,107.224212 C520.876385,106.70702 522.635976,106.040115 524,105.223496 L524,105.223496 L523.345269,93.7908309 C522.144928,94.4441261 520.808184,94.7707736 519.335038,94.7707736 C517.752771,94.7707736 516.525149,94.3896848 515.652174,93.6275072 C514.779199,92.8653295 514.342711,91.8037249 514.342711,90.4426934 L514.342711,90.4426934 L514.342711,76.5601719 L523.836317,76.5601719 L523.836317,66.4340974 L514.342711,66.4340974 L514.342711,51 L506.076726,51 L498.465473,66.4340974 L492,66.4340974 L492,76.5601719 L497.237852,76.5601719 L497.237852,92.4842407 C497.237852,97.3295129 498.574595,101.126791 501.248082,103.876074 C503.921569,106.625358 507.658994,108 512.460358,108 Z" id="sniptt" fill="#FFFFFF" fill-rule="nonzero"></path>
    </g>
</svg>
